<svg xmlns="http://www.w3.org/2000/svg" width="192" height="192" viewBox="0 0 192 192">
  <defs>
    <linearGradient id="gbg" x1="0" y1="0" x2="1" y2="1">
      <stop offset="0" stop-color="#00C97D"/>
      <stop offset="1" stop-color="#007A4D"/>
    </linearGradient>
  </defs>
  <rect width="192" height="192" rx="42" fill="url(#gbg)"/>
  <g transform="translate(20, 15) scale(1.3)">
    <line x1="42" y1="20" x2="33" y2="8" stroke="white" stroke-width="3.5" stroke-linecap="round"/>
    <circle cx="31" cy="6" r="3.5" fill="white"/>
    <line x1="78" y1="20" x2="87" y2="8" stroke="white" stroke-width="3.5" stroke-linecap="round"/>
    <circle cx="89" cy="6" r="3.5" fill="white"/>
    <path d="M26 44 C26 28 40 18 60 18 C80 18 94 28 94 44 L94 60 C94 65 90 68 85 68 L35 68 C30 68 26 65 26 60 Z" fill="white"/>
    <circle cx="45" cy="42" r="5" fill="#00A86B"/>
    <circle cx="75" cy="42" r="5" fill="#00A86B"/>
    <rect x="28" y="72" width="64" height="44" rx="8" fill="white"/>
    <rect x="14" y="72" width="12" height="34" rx="6" fill="white"/>
    <rect x="94" y="72" width="12" height="34" rx="6" fill="white"/>
    <rect x="36" y="85" width="48" height="18" rx="4" fill="#00A86B"/>
    <rect x="51" y="76" width="18" height="36" rx="4" fill="#00A86B"/>
    <rect x="36" y="118" width="18" height="10" rx="5" fill="rgba(255,255,255,0.5)"/>
    <rect x="66" y="118" width="18" height="10" rx="5" fill="rgba(255,255,255,0.5)"/>
  </g>
</svg>
